<svg width="268" height="70" viewBox="0 0 268 70" fill="none" xmlns="http://www.w3.org/2000/svg">
<path d="M106.508 53.58C104.732 53.58 103.076 53.304 101.54 52.752C100.004 52.2 98.66 51.372 97.508 50.268C96.38 49.188 95.48 47.844 94.808 46.236C94.16 44.628 93.836 42.78 93.836 40.692C93.836 38.292 94.232 36.108 95.024 34.14C95.84 32.172 96.932 30.492 98.3 29.1C99.692 27.708 101.288 26.64 103.088 25.896C104.912 25.128 106.832 24.744 108.848 24.744C110.672 24.744 112.304 25.032 113.744 25.608C115.208 26.184 116.444 27 117.452 28.056C118.484 29.088 119.276 30.336 119.828 31.8C120.38 33.264 120.656 34.884 120.656 36.66C120.656 38.244 120.428 39.636 119.972 40.836C119.54 42.012 118.976 43.008 118.28 43.824C117.584 44.616 116.804 45.216 115.94 45.624C115.1 46.032 114.272 46.236 113.456 46.236C112.472 46.236 111.632 46.008 110.936 45.552C110.264 45.096 109.868 44.412 109.748 43.5H109.676C109.076 44.196 108.392 44.784 107.624 45.264C106.856 45.72 106.076 45.948 105.284 45.948C104.06 45.948 103.028 45.516 102.188 44.652C101.372 43.788 100.964 42.528 100.964 40.872C100.964 39.912 101.12 38.94 101.432 37.956C101.768 36.948 102.236 36.048 102.836 35.256C103.436 34.44 104.156 33.78 104.996 33.276C105.86 32.772 106.82 32.52 107.876 32.52C108.5 32.52 109.052 32.664 109.532 32.952C110.012 33.216 110.42 33.648 110.756 34.248H110.828L111.224 32.808H113.204L111.8 40.008C111.08 42.816 111.728 44.22 113.744 44.22C114.32 44.22 114.884 44.052 115.436 43.716C116.012 43.38 116.528 42.9 116.984 42.276C117.464 41.628 117.848 40.848 118.136 39.936C118.424 39 118.568 37.944 118.568 36.768C118.568 35.328 118.352 33.996 117.92 32.772C117.512 31.524 116.888 30.456 116.048 29.568C115.208 28.68 114.164 27.984 112.916 27.48C111.668 26.976 110.228 26.724 108.596 26.724C106.988 26.724 105.428 27.06 103.916 27.732C102.404 28.38 101.06 29.304 99.884 30.504C98.708 31.704 97.76 33.156 97.04 34.86C96.344 36.564 95.996 38.472 95.996 40.584C95.996 42.336 96.26 43.896 96.788 45.264C97.34 46.632 98.096 47.784 99.056 48.72C100.016 49.656 101.144 50.364 102.44 50.844C103.76 51.348 105.188 51.6 106.724 51.6C107.828 51.6 108.872 51.444 109.856 51.132C110.84 50.844 111.74 50.46 112.556 49.98L113.348 51.744C111.308 52.968 109.028 53.58 106.508 53.58ZM105.86 43.932C106.364 43.932 106.88 43.764 107.408 43.428C107.96 43.092 108.548 42.552 109.172 41.808L110.216 36.084C109.88 35.532 109.532 35.148 109.172 34.932C108.812 34.692 108.392 34.572 107.912 34.572C107.192 34.572 106.544 34.764 105.968 35.148C105.416 35.532 104.936 36.024 104.528 36.624C104.144 37.224 103.844 37.884 103.628 38.604C103.436 39.324 103.34 40.02 103.34 40.692C103.34 41.844 103.58 42.672 104.06 43.176C104.54 43.68 105.14 43.932 105.86 43.932ZM132.344 48.432C131.192 48.432 130.112 48.228 129.104 47.82C128.096 47.412 127.22 46.824 126.476 46.056C125.756 45.264 125.18 44.304 124.748 43.176C124.34 42.024 124.136 40.728 124.136 39.288C124.136 37.824 124.364 36.528 124.82 35.4C125.276 34.248 125.888 33.276 126.656 32.484C127.424 31.692 128.312 31.092 129.32 30.684C130.352 30.276 131.432 30.072 132.56 30.072C133.712 30.072 134.696 30.276 135.512 30.684C136.328 31.092 137.048 31.572 137.672 32.124L136.16 34.068C135.656 33.612 135.116 33.24 134.54 32.952C133.988 32.664 133.364 32.52 132.668 32.52C131.876 32.52 131.144 32.688 130.472 33.024C129.8 33.336 129.224 33.792 128.744 34.392C128.264 34.992 127.88 35.712 127.592 36.552C127.328 37.368 127.196 38.28 127.196 39.288C127.196 40.296 127.328 41.208 127.592 42.024C127.856 42.84 128.216 43.548 128.672 44.148C129.152 44.724 129.728 45.18 130.4 45.516C131.072 45.828 131.804 45.984 132.596 45.984C133.412 45.984 134.156 45.816 134.828 45.48C135.524 45.12 136.148 44.7 136.7 44.22L137.996 46.2C137.204 46.896 136.328 47.448 135.368 47.856C134.408 48.24 133.4 48.432 132.344 48.432ZM147.881 48.432C146.801 48.432 145.769 48.228 144.785 47.82C143.825 47.412 142.973 46.824 142.229 46.056C141.485 45.264 140.885 44.304 140.429 43.176C139.997 42.024 139.781 40.728 139.781 39.288C139.781 37.824 139.997 36.528 140.429 35.4C140.885 34.248 141.485 33.276 142.229 32.484C142.973 31.692 143.825 31.092 144.785 30.684C145.769 30.276 146.801 30.072 147.881 30.072C148.961 30.072 149.981 30.276 150.941 30.684C151.925 31.092 152.789 31.692 153.533 32.484C154.277 33.276 154.865 34.248 155.297 35.4C155.753 36.528 155.981 37.824 155.981 39.288C155.981 40.728 155.753 42.024 155.297 43.176C154.865 44.304 154.277 45.264 153.533 46.056C152.789 46.824 151.925 47.412 150.941 47.82C149.981 48.228 148.961 48.432 147.881 48.432ZM147.881 45.984C148.625 45.984 149.309 45.828 149.933 45.516C150.557 45.18 151.085 44.724 151.517 44.148C151.973 43.548 152.321 42.84 152.561 42.024C152.801 41.208 152.921 40.296 152.921 39.288C152.921 38.28 152.801 37.368 152.561 36.552C152.321 35.712 151.973 34.992 151.517 34.392C151.085 33.792 150.557 33.336 149.933 33.024C149.309 32.688 148.625 32.52 147.881 32.52C147.137 32.52 146.453 32.688 145.829 33.024C145.205 33.336 144.665 33.792 144.209 34.392C143.777 34.992 143.441 35.712 143.201 36.552C142.961 37.368 142.841 38.28 142.841 39.288C142.841 40.296 142.961 41.208 143.201 42.024C143.441 42.84 143.777 43.548 144.209 44.148C144.665 44.724 145.205 45.18 145.829 45.516C146.453 45.828 147.137 45.984 147.881 45.984ZM166.565 48.432C164.357 48.432 162.593 47.64 161.273 46.056C159.977 44.472 159.329 42.216 159.329 39.288C159.329 37.872 159.533 36.6 159.941 35.472C160.373 34.32 160.937 33.348 161.633 32.556C162.329 31.764 163.133 31.152 164.045 30.72C164.957 30.288 165.917 30.072 166.925 30.072C167.933 30.072 168.809 30.252 169.553 30.612C170.297 30.972 171.053 31.464 171.821 32.088L171.677 29.1V22.368H174.665V48H172.217L171.965 45.948H171.857C171.161 46.62 170.357 47.208 169.445 47.712C168.557 48.192 167.597 48.432 166.565 48.432ZM167.213 45.948C168.029 45.948 168.797 45.756 169.517 45.372C170.237 44.964 170.957 44.352 171.677 43.536V34.392C170.933 33.72 170.213 33.252 169.517 32.988C168.845 32.7 168.149 32.556 167.429 32.556C166.733 32.556 166.073 32.724 165.449 33.06C164.849 33.372 164.321 33.828 163.865 34.428C163.409 35.004 163.049 35.7 162.785 36.516C162.521 37.332 162.389 38.244 162.389 39.252C162.389 41.364 162.809 43.008 163.649 44.184C164.489 45.36 165.677 45.948 167.213 45.948ZM187.649 48.432C186.473 48.432 185.369 48.228 184.337 47.82C183.329 47.388 182.441 46.788 181.673 46.02C180.929 45.228 180.341 44.268 179.909 43.14C179.477 42.012 179.261 40.728 179.261 39.288C179.261 37.848 179.477 36.564 179.909 35.436C180.365 34.284 180.953 33.312 181.673 32.52C182.417 31.728 183.257 31.128 184.193 30.72C185.129 30.288 186.101 30.072 187.109 30.072C188.213 30.072 189.197 30.264 190.061 30.648C190.949 31.032 191.681 31.584 192.257 32.304C192.857 33.024 193.313 33.888 193.625 34.896C193.937 35.904 194.093 37.032 194.093 38.28C194.093 38.592 194.081 38.904 194.057 39.216C194.057 39.504 194.033 39.756 193.985 39.972H182.177C182.297 41.844 182.873 43.332 183.905 44.436C184.961 45.516 186.329 46.056 188.009 46.056C188.849 46.056 189.617 45.936 190.313 45.696C191.033 45.432 191.717 45.096 192.365 44.688L193.409 46.632C192.641 47.112 191.789 47.532 190.853 47.892C189.917 48.252 188.849 48.432 187.649 48.432ZM182.141 37.848H191.501C191.501 36.072 191.117 34.728 190.349 33.816C189.605 32.88 188.549 32.412 187.181 32.412C186.557 32.412 185.957 32.532 185.381 32.772C184.829 33.012 184.325 33.372 183.869 33.852C183.413 34.308 183.029 34.872 182.717 35.544C182.429 36.216 182.237 36.984 182.141 37.848ZM198.417 55.38V30.504H200.865L201.117 32.52H201.225C202.017 31.848 202.881 31.272 203.817 30.792C204.777 30.312 205.773 30.072 206.805 30.072C207.933 30.072 208.929 30.288 209.793 30.72C210.657 31.128 211.377 31.728 211.953 32.52C212.529 33.288 212.961 34.224 213.249 35.328C213.561 36.408 213.717 37.632 213.717 39C213.717 40.488 213.513 41.82 213.105 42.996C212.697 44.148 212.145 45.132 211.449 45.948C210.753 46.764 209.949 47.388 209.037 47.82C208.125 48.228 207.165 48.432 206.157 48.432C205.341 48.432 204.525 48.252 203.709 47.892C202.917 47.532 202.113 47.04 201.297 46.416L201.369 49.476V55.38H198.417ZM205.653 45.948C206.373 45.948 207.033 45.792 207.633 45.48C208.257 45.144 208.785 44.688 209.217 44.112C209.673 43.512 210.021 42.78 210.261 41.916C210.525 41.052 210.657 40.08 210.657 39C210.657 38.04 210.573 37.164 210.405 36.372C210.237 35.58 209.961 34.908 209.577 34.356C209.217 33.78 208.737 33.336 208.137 33.024C207.561 32.712 206.865 32.556 206.049 32.556C205.305 32.556 204.549 32.76 203.781 33.168C203.037 33.576 202.233 34.164 201.369 34.932V44.112C202.161 44.784 202.929 45.264 203.673 45.552C204.417 45.816 205.077 45.948 205.653 45.948ZM221.017 48L216.157 30.504H219.181L221.773 40.62C221.965 41.46 222.145 42.276 222.313 43.068C222.481 43.86 222.649 44.664 222.817 45.48H222.961C223.153 44.664 223.345 43.86 223.537 43.068C223.729 42.252 223.933 41.436 224.149 40.62L226.849 30.504H229.729L232.465 40.62C232.681 41.46 232.885 42.276 233.077 43.068C233.293 43.86 233.497 44.664 233.689 45.48H233.833C234.025 44.664 234.205 43.86 234.373 43.068C234.541 42.276 234.721 41.46 234.913 40.62L237.469 30.504H240.277L235.597 48H231.997L229.477 38.604C229.261 37.764 229.057 36.936 228.865 36.12C228.697 35.304 228.505 34.452 228.289 33.564H228.145C227.953 34.452 227.761 35.316 227.569 36.156C227.377 36.972 227.161 37.8 226.921 38.64L224.473 48H221.017ZM244.085 48V30.504H246.533L246.785 33.672H246.893C247.493 32.568 248.213 31.692 249.053 31.044C249.917 30.396 250.853 30.072 251.861 30.072C252.557 30.072 253.181 30.192 253.733 30.432L253.157 33.024C252.869 32.928 252.605 32.856 252.365 32.808C252.125 32.76 251.825 32.736 251.465 32.736C250.721 32.736 249.941 33.036 249.125 33.636C248.333 34.236 247.637 35.28 247.037 36.768V48H244.085Z" fill="#F7F7F7"/>
<path d="M69 35C69 53.7777 53.7777 69 35 69C16.2223 69 1 53.7777 1 35C1 16.2223 16.2223 1 35 1C53.7777 1 69 16.2223 69 35Z" stroke="#F7F7F7" stroke-width="2"/>
<path d="M51.2858 26.3334H46.7621C45.8823 26.3359 45.0585 26.6516 44.5506 27.181C44.0426 27.7104 43.9134 28.388 44.2035 29C43.1354 29.0396 42.2838 29.672 42.2384 30.4593C42.1975 31.3933 43.0397 32.2237 44.2669 32.4593C44.9683 32.5462 45.584 32.8532 45.9542 33.3007C46.4165 34.1214 47.2095 34.8179 48.226 35.296C47.6035 36.9533 46.4364 39.198 45.6484 41.9067C45.0141 41.6725 44.297 41.5887 43.5955 41.6667C43.1045 41.6677 42.6276 41.7879 42.2384 42.0087C41.8493 41.7879 41.3724 41.6677 40.8813 41.6667C39.7613 41.6667 39.299 41.6293 38.6195 42.0087C38.2304 41.7879 37.7535 41.6677 37.2624 41.6667C36.2446 41.6667 35.6185 41.6047 34.8748 42.0853C34.124 41.4947 33.2502 40.996 32.2864 40.608V36.9333C33.6644 35.7803 34.7004 34.4279 35.3281 32.9627C38.2189 32.9633 39.9766 30.3333 38.6195 28.036V27C38.6283 24.5439 37.0982 22.2223 34.4731 20.7087C36.108 19.2147 33.7104 17.1907 30.2941 17.766C29.2361 16.9933 27.64 16.7832 26.2843 17.238C25.3858 15.8655 23.4976 14.995 21.4295 15C18.9539 14.9955 16.7893 16.2286 16.1717 17.9951C15.5542 19.7617 16.6408 21.6119 18.8112 22.4894C17.5752 23.8176 16.9112 25.3895 16.9059 27V28.0367C15.7029 30.3333 16.8154 33.402 20.1973 32.9633C20.8273 34.4276 21.8631 35.7794 23.239 36.9333V40.2793C19.3981 41.492 16.9072 44.2743 16.9059 47.3533C16.9059 50.1687 18.0531 51.7673 19.459 54.1913C19.7439 54.6817 20.398 54.9998 21.1219 55H35.0006C36.4996 55 37.7148 54.1046 37.7148 53V52.3333H50.3811C52.3797 52.3333 54 51.1394 54 49.6667V28.3333C54 27.2288 52.7848 26.3334 51.2858 26.3334ZM43.5955 43H44.5003C44.7501 43 44.9527 43.1492 44.9527 43.3333V45.6667C44.9527 46.0349 44.5476 46.3333 44.0479 46.3333C43.5482 46.3333 43.1432 46.0349 43.1432 45.6667V43.3333C43.1432 43.1492 43.3457 43 43.5955 43ZM39.9766 43H40.8813C41.1312 43 41.3337 43.1492 41.3337 43.3333V45.6667C41.3337 46.0349 40.9286 46.3333 40.429 46.3333C39.9293 46.3333 39.5242 46.0349 39.5242 45.6667V43.3333C39.5242 43.1492 39.7268 43 39.9766 43ZM35.9053 43.3333C35.9053 43.1492 36.1078 43 36.3577 43H37.2624C37.5122 43 37.7148 43.1492 37.7148 43.3333V45.6667C37.7148 46.0349 37.3097 46.3333 36.81 46.3333C36.3104 46.3333 35.9053 46.0349 35.9053 45.6667V43.3333ZM33.1911 19.6667C33.1911 19.8247 32.9477 20.0127 32.5723 20.146C32.1591 20.2788 31.7095 20.3381 31.2595 20.3194C31.4237 19.8906 31.4237 19.4368 31.2595 19.008C31.302 19.008 31.3409 19 31.3843 19C32.4673 19 33.1911 19.4 33.1911 19.6667ZM29.5722 19.6667C29.5722 20.4031 28.762 21 27.7627 21C26.7633 21 25.9532 20.4031 25.9532 19.6667C25.9532 18.9303 26.7633 18.3334 27.7627 18.3334C28.762 18.3334 29.5722 18.9303 29.5722 19.6667ZM22.9504 20.1487C22.5767 20.0127 22.3343 19.8234 22.3343 19.6667C22.3343 19.4 23.0581 19 24.1437 19C24.1872 19 24.2261 19.0067 24.2686 19.008C24.1044 19.4365 24.1044 19.8902 24.2686 20.3187C23.8171 20.3394 23.3655 20.2811 22.9504 20.1487ZM21.4295 16.3334C22.7369 16.3302 23.9428 16.8522 24.5753 17.6954C21.3599 17.49 19.5631 19.352 21.0568 20.7134C20.6732 20.9362 20.3105 21.1778 19.9711 21.4367C18.4115 20.9257 17.5484 19.6812 17.9001 18.4505C18.2518 17.2198 19.7227 16.3375 21.4295 16.3334ZM22.6826 21.4994C23.5072 21.6958 24.3898 21.7188 25.2312 21.566C26.6346 22.5892 28.8943 22.5892 30.2977 21.566C31.1407 21.7197 32.0253 21.6949 32.85 21.4947C35.383 22.7449 36.876 24.8607 36.81 27.1067C36.3208 26.99 35.7992 26.9671 35.2946 27.04C34.5183 26.55 30.6397 25.6667 28.7525 24.5867C28.1629 24.2587 27.3488 24.2606 26.762 24.5913C24.8811 25.6687 21.0351 26.5347 20.229 27.04C19.7243 26.9672 19.2028 26.9901 18.7135 27.1067C18.6497 24.8607 20.1465 22.7461 22.6826 21.4994ZM21.6105 31.9073C21.4865 31.636 21.1413 31.4533 20.7528 31.4533C20.3239 31.4533 20.2172 31.6667 19.6219 31.6667C18.5068 31.5624 17.7057 30.8245 17.8124 30C17.7057 29.176 18.5058 28.4383 19.6201 28.3333C20.2208 28.3333 20.399 28.6147 20.9564 28.426C21.1771 28.3511 21.3476 28.2139 21.4295 28.0453C22.2167 27.67 25.746 26.8247 27.7627 25.712C29.82 26.8453 33.315 27.6753 34.0958 28.0453C34.178 28.214 34.3489 28.3512 34.5699 28.426C35.1272 28.6147 35.3073 28.3333 35.9062 28.3333C37.0212 28.4376 37.8224 29.1755 37.7157 30C37.8223 30.8247 37.0216 31.3494 35.9062 31.4533C35.2394 31.4533 35.0458 31.3267 34.4469 31.4987C33.6398 31.73 34.0162 32.376 32.2348 34.7793C31.1373 36.2527 29.6328 37 27.7627 37C25.8926 37 24.388 36.2527 23.2915 34.7807C22.623 33.8593 22.0607 32.8981 21.6105 31.9073ZM25.0485 37.8927C26.7698 38.4814 28.7556 38.4814 30.4769 37.8927V40.036C28.7228 39.6154 26.8469 39.553 25.0485 39.8553V37.8927ZM35.9053 53C35.9053 53.3682 35.5002 53.6667 35.0006 53.6667H21.1219C19.7503 51.3007 18.7153 49.884 18.7153 47.3533C18.71 44.6454 21.0429 42.235 24.5191 41.3566C27.9952 40.4781 31.8447 41.3263 34.0958 43.4667V43.8407C32.8017 43.1648 31.2069 42.8774 29.6355 43.0367C26.3081 43.3452 23.8839 45.5116 24.1071 47.9774C24.3303 50.4431 27.1233 52.3531 30.4769 52.3333H35.9053V53ZM52.1905 49.6667C52.1905 50.403 51.3804 51 50.3811 51H30.4769C28.3907 50.9987 26.5762 49.9463 26.0845 48.4523C25.5927 46.9584 26.5513 45.4104 28.4049 44.705C30.2585 43.9996 32.5264 44.3197 33.895 45.48C33.9529 45.5287 34.0316 45.5667 34.0958 45.6133C34.0658 46.412 34.6854 47.1469 35.6705 47.4808C36.6556 47.8147 37.816 47.6832 38.6195 47.1467C39.6423 47.84 41.2156 47.84 42.2384 47.1467C43.045 47.6958 44.2269 47.8224 45.2123 47.4653C45.4695 47.658 45.8591 47.7173 46.1988 47.6153C46.5385 47.5133 46.761 47.2703 46.7621 47C46.7621 46.8 46.7685 45.92 46.7802 45.6907C46.9847 41.4973 49.4709 37.344 50.1775 35.0473C50.284 34.7009 50.0031 34.3537 49.5387 34.258C48.7715 34.0993 48.2377 33.6773 47.5728 32.704C46.9765 31.9114 45.939 31.3511 44.7337 31.1707C43.9963 31.024 43.857 30.3333 44.3012 30.3333H48.5716C49.0713 30.3333 49.4763 30.0349 49.4763 29.6667C49.4763 29.2985 49.0713 29 48.5716 29H46.7621C46.2624 29 45.8574 28.7015 45.8574 28.3333C45.8574 27.9652 46.2624 27.6667 46.7621 27.6667H51.2858C51.7855 27.6667 52.1905 27.9652 52.1905 28.3333V49.6667Z" fill="#F7F7F7"/>
</svg>
